/* XPM */
static char *result[] = {
/* columns rows colors chars-per-pixel */
"48 40 212 2 ",
"   c #14071D",
".  c #16081F",
"X  c #1A0A26",
"o  c #240D33",
"O  c #2B0E39",
"+  c #290E36",
"@  c #200B2E",
"#  c #2F1042",
"$  c #341145",
"%  c #3B1044",
"&  c #35134C",
"*  c #3A134C",
"=  c #3B1554",
"-  c #3E175A",
";  c #44124C",
":  c #49124D",
">  c #431147",
",  c #421554",
"<  c #4E1657",
"1  c #541454",
"2  c #5E1559",
"3  c #581558",
"4  c #63165C",
"5  c #6A165F",
"6  c #441964",
"7  c #4A1861",
"8  c #4A1B6C",
"9  c #471A68",
"0  c #5B1968",
"q  c #4E1C72",
"w  c #541D75",
"e  c #5B1D75",
"r  c #531E7A",
"t  c #591F7D",
"y  c #6F1661",
"u  c #651865",
"i  c #631A6B",
"p  c #6A1969",
"a  c #7D1763",
"s  c #761866",
"d  c #661D76",
"f  c #841765",
"g  c #8E1768",
"h  c #86186A",
"j  c #881867",
"k  c #91186B",
"l  c #9A186E",
"z  c #851D7C",
"x  c #891B74",
"c  c #961B78",
"v  c #AE1A7A",
"b  c #A81976",
"n  c #B31A7C",
"m  c #5A2183",
"M  c #5C238A",
"N  c #572081",
"B  c #5F2591",
"V  c #632082",
"C  c #6B238E",
"Z  c #7C228A",
"A  c #762289",
"S  c #622696",
"D  c #6E2695",
"F  c #64289D",
"G  c #6B299F",
"H  c #672799",
"J  c #732593",
"K  c #792698",
"L  c #662AA3",
"P  c #6B2BA5",
"I  c #6F2CA9",
"U  c #792EAD",
"Y  c #762CA8",
"T  c #7C2FB1",
"R  c #841F83",
"E  c #971F86",
"W  c #AA1D83",
"Q  c #A51E87",
"!  c #B61B83",
"~  c #BD1B85",
"^  c #B41E8C",
"/  c #BC1D8C",
"(  c #BD1F92",
")  c #842187",
"_  c #99218E",
"`  c #892597",
"'  c #94269B",
"]  c #9D269C",
"[  c #9C2394",
"{  c #A5218C",
"}  c #AC2294",
"|  c #A3269C",
" . c #A62395",
".. c #B32194",
"X. c #B9219A",
"o. c #8C2DAC",
"O. c #872BA8",
"+. c #942AA4",
"@. c #9A29A3",
"#. c #932DAB",
"$. c #9C2DAC",
"%. c #8A2FB3",
"&. c #982FB1",
"*. c #8431B5",
"=. c #8B31B5",
"-. c #8732B8",
";. c #8A33BA",
":. c #9335BE",
">. c #9833BA",
",. c #A72AA9",
"<. c #B529AC",
"1. c #B727A7",
"2. c #B42EB5",
"3. c #BA2DB6",
"4. c #AB33BC",
"5. c #A333BC",
"6. c #B231BC",
"7. c #BC31BD",
"8. c #A72EB2",
"9. c #C31C8C",
"0. c #C51D92",
"q. c #C91D96",
"w. c #CE1E9E",
"e. c #C4209C",
"r. c #C8209E",
"t. c #D41FA5",
"y. c #D81FAA",
"u. c #C326AB",
"i. c #C722A6",
"p. c #DB22AD",
"a. c #D224A9",
"s. c #D537AC",
"d. c #C629B6",
"f. c #DE22B3",
"g. c #DC25BC",
"h. c #D728B7",
"j. c #D83BB2",
"k. c #D635B8",
"l. c #CE49BE",
"z. c #D444B4",
"x. c #D749B6",
"c. c #D35DBA",
"v. c #D557B6",
"b. c #D463B9",
"n. c #9437C1",
"m. c #9638C4",
"M. c #9B39C5",
"N. c #9E3BC9",
"B. c #9F36C1",
"V. c #AB35C1",
"C. c #AA39C6",
"Z. c #A33DCB",
"A. c #A93ECD",
"S. c #A537C4",
"D. c #B435C4",
"F. c #B33DCE",
"G. c #BB3ACC",
"H. c #B936C5",
"J. c #BE3ED3",
"K. c #B43FD1",
"L. c #CD2EC2",
"P. c #D52CC4",
"I. c #D929C3",
"U. c #D62CC6",
"Y. c #CA32C6",
"T. c #CC35CC",
"R. c #CB39CD",
"E. c #C539CD",
"W. c #D131C9",
"Q. c #D535C3",
"!. c #C43DD4",
"~. c #C93AD1",
"^. c #AB4BCE",
"/. c #A940CF",
"(. c #B64ACD",
"). c #A554CA",
"_. c #A55BCA",
"`. c #AD43D1",
"'. c #AF4CD1",
"]. c #B443D3",
"[. c #BB41D4",
"{. c #B749D4",
"}. c #BE57D7",
"|. c #B458D0",
" X c #A565C8",
".X c #A875C9",
"XX c #B269CD",
"oX c #C643CD",
"OX c #C94CC7",
"+X c #CC56C4",
"@X c #C456D3",
"#X c #CD4BC8",
"$X c #D878C4",
"%X c #DB79D9",
"&X c #C87ED9",
"*X c #AD84CB",
"=X c #B28ECC",
"-X c #BB93D4",
";X c #DB86CA",
":X c #DB97CD",
">X c #D389D5",
",X c #DE92D6",
"<X c #E29AD9",
"1X c #D8A7D9",
"2X c #DFB7D7",
"3X c #E3BBDD",
"4X c #E1B1D9",
"5X c #E2A4D5",
"6X c #E0BEE0",
"7X c #E7C6E1",
"8X c #EBD2E7",
"9X c None",
/* pixels */
"9X9X9X9X9X9X9X9X9X9X9X9X9X9X9X9X9X9X9X9X9X9X9X9X9X9X9X9X9X9X9X9X9X9X9X9X9X9X9X9X9X9X9X9X9X9X9X9X",
"9X9X9X9X9X9X9X9X9X9X9X9X9X9X9X9X8X:X$Xb.j.j.j.j.x.v.$X5X8X9X9X9X9X9X9X9X9X9X9X9X9X9X9X9X9X9X9X9X",
"9X9X9X9X9X9X9X9X9X9X9X9X9X9X6X;Xx.s.p.p.f.f.f.f.f.f.g.g.j.%X7X9X9X9X9X9X9X9X9X9X9X9X9X9X9X9X9X9X",
"9X9X9X9X9X9X9X9X9X9X9X9X8X;Xv.a.p.f.f.f.f.f.f.f.f.f.g.g.g.f.j.,X9X9X9X9X9X9X9X9X9X9X9X9X9X9X9X9X",
"9X9X9X9X9X9X9X9X9X9X9X3Xb.s.y.f.p.p.p.y.y.t.t.w.w.t.a.p.g.g.g.g.x.3X9X9X9X9X9X9X9X9X9X9X9X9X9X9X",
"9X9X9X9X9X9X9X9X9X9X3Xb.s.p.f.y.p.y.w.q.9.9.9.9.0.0.q.r.t.p.g.I.I.Q.,X9X9X9X9X9X9X9X9X9X9X9X9X9X",
"9X9X9X9X9X9X9X9X9X7Xb.s.p.f.f.y.w.9.9.9.9.9.~ ~ ~ 9.9.e.r.r.a.h.I.I.U.;X9X9X9X9X9X9X9X9X9X9X9X9X",
"9X9X9X9X9X9X9X9X8Xb.z.p.f.f.t.q.9.9.~ n n n n n n n n ! / X.i.i.d.P.U.Q.<X9X9X9X9X9X9X9X9X9X9X9X",
"9X9X9X9X9X9X9X9X:Xz.s.f.f.t.0.9.~ n v v n n v b v n ^ ^ ^ ^ ..1.u.d.U.W.T.3X9X9X9X9X9X9X9X9X9X9X",
"9X9X9X9X9X9X9X2Xb.k.g.g.t.9./ ! n v v b l g g g g g k c W ..} ..<.u.d.W.W.#X9X9X9X9X9X9X9X9X9X9X",
"9X9X9X9X9X9X9X:Xz.g.I.a.0./ ! v n b l g j f f f f j k x x E } } } 3.3.d.W.W.,X9X9X9X9X9X9X9X9X9X",
"9X9X9X9X9X9X9Xc.k.I.g.q.( ! v v b g f a a y 5 5 5 5 y s z R E |  .,.3.3.Y.R.oX6X9X9X9X9X9X9X9X9X",
"9X9X9X9X9X9X4Xz.P.I.i.( ^ W W b g f a 5 4 4 2 2 2 4 4 y s z R ` | ,.,.2.H.T.T.>X9X9X9X9X9X9X9X9X",
"9X9X9X9X9X9X;Xk.P.h.1.( ^ W W g j f 5 4 3 1 : : : : 1 4 u i Z R ' @.,.2.2.T.T.{.9X9X9X9X9X9X9X9X",
"9X9X9X9X9X9X$XP.P.d.( ( Q Q k h f 5 4 1 : : ; > ; : > : 0 i d Z Z @.@.8.D.H.~.!.1X9X9X9X9X9X9X9X",
"9X9X9X9X9X9Xc.P.P.u.X.} Q Q h x y 5 1 > : > % % % ; ; ; < 0 d A J +.+.$.6.H.!.!.>X9X9X9X9X9X9X9X",
"9X9X9X9X9X9Xl.U.P.1.1.{ W E x s 4 4 : > ; % + o + $ * ; , 0 e V J K #.#.V.D.!.!.}.9X9X9X9X9X9X9X",
"9X9X9X9X9X9X#XU.L.1.1.Q  .z z y 5 1 : : $ + X X X + & * , 7 w V D K #.#.4.V.!.!.{.9X9X9X9X9X9X9X",
"9X9X9X9X9X9Xl.W.L.1.1.E  .z z y u 1 > : $ o     . o # * , 6 w V D G o.o.5.V.J.!.{.9X9X9X9X9X9X9X",
"9X9X9X9X9X9Xl.W.L.1.1._ [ z R u u 1 > ; $ o   X X o # & - 6 r m D P %.%.B.V.J.!.{.9X9X9X9X9X9X9X",
"9X9X9X9X9X9X+XW.L.<.<._ ] R R p i < , ; * # @ X o # & = 6 8 r M L P %.=.B.Z.[.!.{.9X9X9X9X9X9X9X",
"9X9X9X9X9X9X+XT.Y.2.2.[ ] R R d e 0 , = = & # # & & & - 6 q N B L I *.=.M.K.[.[.'.9X9X9X9X9X9X9X",
"9X9X9X9X9X9X$XT.T.3.2.] ] ` Z A i e < , = = = = - = - 6 8 r M F L T *.n.S.A.[.J.|.9X9X9X9X9X9X9X",
"9X9X9X9X9X9X1XT.T.7.2.,.' ' Z A d e w 7 , - = - - 6 6 8 r N B L L *.-.n.N.K.!.]..X9X9X9X9X9X9X9X",
"9X9X9X9X9X9X9X+XT.Y.2.2.+.+.` A J d e w 8 9 6 6 6 8 r r N B F L I -.n.m.N.].J.'.-X9X9X9X9X9X9X9X",
"9X9X9X9X9X9X9X%XR.R.7.6.8.+.+.Z J C V t r r w w r r N M B F L P T n.m.m.A.K.{.).9X9X9X9X9X9X9X9X",
"9X9X9X9X9X9X9X9X#XR.T.6.2.$.+.O.K J D C M N N m N M B B L L P T -.n.N.N.].[.]..X9X9X9X9X9X9X9X9X",
"9X9X9X9X9X9X9X9X>XR.R.E.4.4.$.+.O.K J D H H S S B L L L L I T -.n.N.N.`.].].).-X9X9X9X9X9X9X9X9X",
"9X9X9X9X9X9X9X9X9X%X~.~.D.6.4.&.#.O.O.K P G L L L L P L T T n.n.N.N./.].].`..X9X9X9X9X9X9X9X9X9X",
"9X9X9X9X9X9X9X9X9X9XoX~.E.H.V.V.>.&.o.%.O.U Y U T T T T T n.m.m.N.Z.].].]. X9X9X9X9X9X9X9X9X9X9X",
"9X9X9X9X9X9X9X9X9X9X9XoX~.~.H.V.V.B.>.&.%.%.*.T T n.n.n.m.N.N.Z.A.].].]._.=X9X9X9X9X9X9X9X9X9X9X",
"9X9X9X9X9X9X9X9X9X9X9X9XoX~.~.G.D.V.S.S.S.n.n.n.n.n.m.N.N.Z./.`.].].`.).*X9X9X9X9X9X9X9X9X9X9X9X",
"9X9X9X9X9X9X9X9X9X9X9X9X9X@X~.!.!.G.F.C.C.C.S.Z.S.Z.Z.A.`.].].].].`._.*X9X9X9X9X9X9X9X9X9X9X9X9X",
"9X9X9X9X9X9X9X9X9X9X9X9X9X9X@X!.!.E.!.!.G.F.K.K.K.K.K.K.[.].].].'. X=X9X9X9X9X9X9X9X9X9X9X9X9X9X",
"9X9X9X9X9X9X9X9X9X9X9X9X9X9X9X9X}.[.!.!.oX!.!.oX!.J.[.[.].].'._..X9X9X9X9X9X9X9X9X9X9X9X9X9X9X9X",
"9X9X9X9X9X9X9X9X9X9X9X9X9X9X9X9X9X9XXX|.{.[.].[.].].'.'.)._..X9X9X9X9X9X9X9X9X9X9X9X9X9X9X9X9X9X",
"9X9X9X9X9X9X9X9X9X9X9X9X9X9X9X9X9X9X9X9X9X9X9X9X9X9X9X9X9X9X9X9X9X9X9X9X9X9X9X9X9X9X9X9X9X9X9X9X",
"9X9X9X9X9X9X9X9X9X9X9X9X9X9X9X9X9X9X9X9X9X9X9X9X9X9X9X9X9X9X9X9X9X9X9X9X9X9X9X9X9X9X9X9X9X9X9X9X",
"9X9X9X9X9X9X9X9X9X9X9X9X9X9X9X9X9X9X9X9X9X9X9X9X9X9X9X9X9X9X9X9X9X9X9X9X9X9X9X9X9X9X9X9X9X9X9X9X",
"9X9X9X9X9X9X9X9X9X9X9X9X9X9X9X9X9X9X9X9X9X9X9X9X9X9X9X9X9X9X9X9X9X9X9X9X9X9X9X9X9X9X9X9X9X9X9X9X"
};
