/* XPM */
static char *result[] = {
/* columns rows colors chars-per-pixel */
"48 48 12 1 ",
"  c black",
". c #0C0E19",
"X c #21110D",
"o c #402717",
"O c #573A23",
"+ c #AC7B5D",
"@ c #1D438A",
"# c #2C65B5",
"$ c #787E97",
"% c #A4A8B5",
"& c #C1AC8F",
"* c None",
/* pixels */
"************************************************",
"************************************************",
"************************************************",
"************************************************",
"************************************************",
"************************************************",
"************************************************",
"************************************************",
"************************************************",
"************************************************",
"************************************************",
"************************************************",
"************************************************",
"************************************************",
"************************************************",
"************************************************",
"************************************************",
"************************************************",
"************************************************",
"************************************************",
"************************************************",
"************************************************",
"**********************  *    *******************",
"********************   O oOO *******************",
"******************* OOoOoOO  *******************",
"****************** OOOOOOOOOo ******************",
"***************** OOOOOOOOOOOo *****************",
"***************** OOOooOOOoOOo *****************",
"**************** oOo++oOOOoooo *****************",
"**************** oo++++oOOooOo *****************",
"**************** o X&&X+Oo+OOo *****************",
"*****************  X&&X&o++Ooo *****************",
"****************** &&&&&&++oo ******************",
"****************** +&&&&++oo *******************",
"******************* +++++oo ********************",
"******************* o$$$Ooo ********************",
"******************* o%$$OOo ********************",
"****************** +o%%$OO&& *******************",
"****************** +o###OO&& *******************",
"******************.  ##@##@ .*******************",
"*****************... Oo  Oo ..******************",
"*****************.............******************",
"******************...........*******************",
"************************************************",
"************************************************",
"************************************************",
"************************************************",
"************************************************"
};
